<svg xmlns="http://www.w3.org/2000/svg" viewBox="0 0 1440 960" font-family="Arial,Helvetica,sans-serif"><rect x="0" y="0" width="1440" height="960" fill="#0f1115"/><text x="1428" y="28" font-size="18" fill="#e5e7eb" text-anchor="end">Энергосистема</text><polyline fill="none" stroke="#22c55e" stroke-width="3" stroke-linejoin="round" points="264,108 340,108 "/><circle r="4.5" fill="#22c55e"><animateMotion dur="1.46s" repeatCount="indefinite" begin="-0.00s" path="M 264,108 340,108"/></circle><polyline fill="none" stroke="#22c55e" stroke-width="3" stroke-linejoin="round" points="264,144 328,144 328,30 655,30 655,44 "/><circle r="4.5" fill="#22c55e"><animateMotion dur="9.98s" repeatCount="indefinite" begin="-0.00s" path="M 264,144 328,144 328,30 655,30 655,44"/></circle><circle r="4.5" fill="#22c55e"><animateMotion dur="9.98s" repeatCount="indefinite" begin="-2.00s" path="M 264,144 328,144 328,30 655,30 655,44"/></circle><circle r="4.5" fill="#22c55e"><animateMotion dur="9.98s" repeatCount="indefinite" begin="-3.99s" path="M 264,144 328,144 328,30 655,30 655,44"/></circle><circle r="4.5" fill="#22c55e"><animateMotion dur="9.98s" repeatCount="indefinite" begin="-5.99s" path="M 264,144 328,144 328,30 655,30 655,44"/></circle><circle r="4.5" fill="#22c55e"><animateMotion dur="9.98s" repeatCount="indefinite" begin="-7.98s" path="M 264,144 328,144 328,30 655,30 655,44"/></circle><polyline fill="none" stroke="#22c55e" stroke-width="3" stroke-linejoin="round" points="264,180 284,180 284,14 875,14 875,44 "/><circle r="4.5" fill="#22c55e"><animateMotion dur="15.52s" repeatCount="indefinite" begin="-0.00s" path="M 264,180 284,180 284,14 875,14 875,44"/></circle><circle r="4.5" fill="#22c55e"><animateMotion dur="15.52s" repeatCount="indefinite" begin="-2.22s" path="M 264,180 284,180 284,14 875,14 875,44"/></circle><circle r="4.5" fill="#22c55e"><animateMotion dur="15.52s" repeatCount="indefinite" begin="-4.43s" path="M 264,180 284,180 284,14 875,14 875,44"/></circle><circle r="4.5" fill="#22c55e"><animateMotion dur="15.52s" repeatCount="indefinite" begin="-6.65s" path="M 264,180 284,180 284,14 875,14 875,44"/></circle><circle r="4.5" fill="#22c55e"><animateMotion dur="15.52s" repeatCount="indefinite" begin="-8.87s" path="M 264,180 284,180 284,14 875,14 875,44"/></circle><circle r="4.5" fill="#22c55e"><animateMotion dur="15.52s" repeatCount="indefinite" begin="-11.09s" path="M 264,180 284,180 284,14 875,14 875,44"/></circle><circle r="4.5" fill="#22c55e"><animateMotion dur="15.52s" repeatCount="indefinite" begin="-13.30s" path="M 264,180 284,180 284,14 875,14 875,44"/></circle><polyline fill="none" stroke="#22c55e" stroke-width="3" stroke-linejoin="round" points="435,219 435,275 "/><circle r="4.5" fill="#22c55e"><animateMotion dur="0.92s" repeatCount="indefinite" begin="-0.00s" path="M 435,219 435,275"/></circle><polyline fill="none" stroke="#22c55e" stroke-width="3" stroke-linejoin="round" points="655,219 655,275 "/><circle r="4.5" fill="#22c55e"><animateMotion dur="0.92s" repeatCount="indefinite" begin="-0.00s" path="M 655,219 655,275"/></circle><polyline fill="none" stroke="#22c55e" stroke-width="3" stroke-linejoin="round" points="875,219 875,275 "/><circle r="4.5" fill="#22c55e"><animateMotion dur="0.92s" repeatCount="indefinite" begin="-0.00s" path="M 875,219 875,275"/></circle><polyline fill="none" stroke="#22c55e" stroke-width="3" stroke-linejoin="round" points="435,275 875,275 "/><polyline fill="none" stroke="#22c55e" stroke-width="3" stroke-linejoin="round" points="435,275 119,275 119,300 "/><circle r="4.5" fill="#22c55e"><animateMotion dur="5.59s" repeatCount="indefinite" begin="-0.00s" path="M 435,275 119,275 119,300"/></circle><circle r="4.5" fill="#22c55e"><animateMotion dur="5.59s" repeatCount="indefinite" begin="-1.86s" path="M 435,275 119,275 119,300"/></circle><circle r="4.5" fill="#22c55e"><animateMotion dur="5.59s" repeatCount="indefinite" begin="-3.73s" path="M 435,275 119,275 119,300"/></circle><polyline fill="none" stroke="#6b7280" stroke-width="2" stroke-linejoin="round" stroke-dasharray="7 7" points="875,275 905,275 905,300 "/><polyline fill="none" stroke="#60a5fa" stroke-width="3" stroke-linejoin="round" points="1020,150 1002,150 1002,250 95,250 95,300 "/><circle r="4.5" fill="#60a5fa"><animateMotion dur="20.67s" repeatCount="indefinite" begin="-0.00s" path="M 1020,150 1002,150 1002,250 95,250 95,300"/></circle><circle r="4.5" fill="#60a5fa"><animateMotion dur="20.67s" repeatCount="indefinite" begin="-2.07s" path="M 1020,150 1002,150 1002,250 95,250 95,300"/></circle><circle r="4.5" fill="#60a5fa"><animateMotion dur="20.67s" repeatCount="indefinite" begin="-4.13s" path="M 1020,150 1002,150 1002,250 95,250 95,300"/></circle><circle r="4.5" fill="#60a5fa"><animateMotion dur="20.67s" repeatCount="indefinite" begin="-6.20s" path="M 1020,150 1002,150 1002,250 95,250 95,300"/></circle><circle r="4.5" fill="#60a5fa"><animateMotion dur="20.67s" repeatCount="indefinite" begin="-8.27s" path="M 1020,150 1002,150 1002,250 95,250 95,300"/></circle><circle r="4.5" fill="#60a5fa"><animateMotion dur="20.67s" repeatCount="indefinite" begin="-10.34s" path="M 1020,150 1002,150 1002,250 95,250 95,300"/></circle><circle r="4.5" fill="#60a5fa"><animateMotion dur="20.67s" repeatCount="indefinite" begin="-12.40s" path="M 1020,150 1002,150 1002,250 95,250 95,300"/></circle><circle r="4.5" fill="#60a5fa"><animateMotion dur="20.67s" repeatCount="indefinite" begin="-14.47s" path="M 1020,150 1002,150 1002,250 95,250 95,300"/></circle><circle r="4.5" fill="#60a5fa"><animateMotion dur="20.67s" repeatCount="indefinite" begin="-16.54s" path="M 1020,150 1002,150 1002,250 95,250 95,300"/></circle><circle r="4.5" fill="#60a5fa"><animateMotion dur="20.67s" repeatCount="indefinite" begin="-18.61s" path="M 1020,150 1002,150 1002,250 95,250 95,300"/></circle><polyline fill="none" stroke="#60a5fa" stroke-width="3" stroke-linejoin="round" points="264,380 400,380 "/><circle r="4.5" fill="#60a5fa"><animateMotion dur="2.62s" repeatCount="indefinite" begin="-0.00s" path="M 264,380 400,380"/></circle><polyline fill="none" stroke="#22c55e" stroke-width="3" stroke-linejoin="round" points="700,380 800,380 "/><circle r="4.5" fill="#22c55e"><animateMotion dur="1.43s" repeatCount="indefinite" begin="-0.00s" path="M 700,380 800,380"/></circle><polyline fill="none" stroke="#22c55e" stroke-width="3" stroke-linejoin="round" points="1000,380 1140,380 "/><circle r="4.5" fill="#22c55e"><animateMotion dur="2.30s" repeatCount="indefinite" begin="-0.00s" path="M 1000,380 1140,380"/></circle><polyline fill="none" stroke="#a78bfa" stroke-width="3" stroke-linejoin="round" points="174,520 174,488 470,488 470,460 "/><circle r="4.5" fill="#a78bfa"><animateMotion dur="6.40s" repeatCount="indefinite" begin="-0.00s" path="M 174,520 174,488 470,488 470,460"/></circle><circle r="4.5" fill="#a78bfa"><animateMotion dur="6.40s" repeatCount="indefinite" begin="-2.13s" path="M 174,520 174,488 470,488 470,460"/></circle><circle r="4.5" fill="#a78bfa"><animateMotion dur="6.40s" repeatCount="indefinite" begin="-4.27s" path="M 174,520 174,488 470,488 470,460"/></circle><polyline fill="none" stroke="#f5b300" stroke-width="3" stroke-linejoin="round" points="540,520 540,460 "/><circle r="4.5" fill="#f5b300"><animateMotion dur="0.51s" repeatCount="indefinite" begin="-0.00s" path="M 540,520 540,460"/></circle><polyline fill="none" stroke="#6b7280" stroke-width="2" stroke-linejoin="round" stroke-dasharray="7 7" points="1010,520 1010,496 600,496 600,470 "/><polyline fill="none" stroke="#6b7280" stroke-width="2" stroke-linejoin="round" stroke-dasharray="7 7" points="1060,520 1060,484 588,484 588,460 "/><rect x="24" y="44" width="240" height="175" rx="12" fill="#171a20" stroke="#2b2f38" stroke-width="1.5"/><g fill="#e5e7eb"><ellipse cx="44" cy="66" rx="11" ry="6.5"/><polygon points="54,66 63,60 63,72"/></g><circle cx="39" cy="64.5" r="1.5" fill="#0f1115"/><text x="68" y="71" font-size="14" fill="#e5e7eb" text-anchor="start">Рыбхоз</text><circle cx="248" cy="62" r="6" fill="#22c55e"/><circle cx="44" cy="103" r="5" fill="#22c55e"/><text x="60" y="108" font-size="13" fill="#e5e7eb" text-anchor="start">L1</text><text x="252" y="108" font-size="13" fill="#e5e7eb" text-anchor="end">235В / 12А / 2.82кВт</text><circle cx="44" cy="139" r="5" fill="#22c55e"/><text x="60" y="144" font-size="13" fill="#e5e7eb" text-anchor="start">L2</text><text x="252" y="144" font-size="13" fill="#e5e7eb" text-anchor="end">235В / 12А / 2.82кВт</text><circle cx="44" cy="175" r="5" fill="#22c55e"/><text x="60" y="180" font-size="13" fill="#e5e7eb" text-anchor="start">L3</text><text x="252" y="180" font-size="13" fill="#e5e7eb" text-anchor="end">235В / 12А / 2.82кВт</text><rect x="340" y="44" width="190" height="175" rx="12" fill="#171a20" stroke="#2b2f38" stroke-width="1.5"/><path d="M 349 66 c 3,-13 8,-13 11,0 c 3,13 8,13 11,0" fill="none" stroke="#e5e7eb" stroke-width="2.5"/><text x="384" y="71" font-size="14" fill="#e5e7eb" text-anchor="start">Стаб L1</text><circle cx="514" cy="62" r="6" fill="#22c55e"/><text x="435" y="100" font-size="12" fill="#60a5fa" text-anchor="middle">стабилизация</text><text x="354" y="124" font-size="11" fill="#9ca3af" text-anchor="start">вход → выход</text><text x="516" y="124" font-size="12" fill="#e5e7eb" text-anchor="end">235 → 230В</text><text x="354" y="146" font-size="11" fill="#9ca3af" text-anchor="start">ступень</text><text x="516" y="146" font-size="12" fill="#e5e7eb" text-anchor="end">2</text><text x="354" y="168" font-size="11" fill="#9ca3af" text-anchor="start">нагрузка</text><text x="516" y="168" font-size="12" fill="#e5e7eb" text-anchor="end">12А · 2.76кВт</text><text x="354" y="190" font-size="11" fill="#9ca3af" text-anchor="start">U мин/макс</text><text x="516" y="190" font-size="12" fill="#e5e7eb" text-anchor="end">228 / 240В</text><rect x="560" y="44" width="190" height="175" rx="12" fill="#171a20" stroke="#2b2f38" stroke-width="1.5"/><path d="M 569 66 c 3,-13 8,-13 11,0 c 3,13 8,13 11,0" fill="none" stroke="#e5e7eb" stroke-width="2.5"/><text x="604" y="71" font-size="14" fill="#e5e7eb" text-anchor="start">Стаб L2</text><circle cx="734" cy="62" r="6" fill="#22c55e"/><text x="655" y="100" font-size="12" fill="#60a5fa" text-anchor="middle">стабилизация</text><text x="574" y="124" font-size="11" fill="#9ca3af" text-anchor="start">вход → выход</text><text x="736" y="124" font-size="12" fill="#e5e7eb" text-anchor="end">235 → 230В</text><text x="574" y="146" font-size="11" fill="#9ca3af" text-anchor="start">ступень</text><text x="736" y="146" font-size="12" fill="#e5e7eb" text-anchor="end">2</text><text x="574" y="168" font-size="11" fill="#9ca3af" text-anchor="start">нагрузка</text><text x="736" y="168" font-size="12" fill="#e5e7eb" text-anchor="end">12А · 2.76кВт</text><text x="574" y="190" font-size="11" fill="#9ca3af" text-anchor="start">U мин/макс</text><text x="736" y="190" font-size="12" fill="#e5e7eb" text-anchor="end">228 / 240В</text><rect x="780" y="44" width="190" height="175" rx="12" fill="#171a20" stroke="#2b2f38" stroke-width="1.5"/><path d="M 789 66 c 3,-13 8,-13 11,0 c 3,13 8,13 11,0" fill="none" stroke="#e5e7eb" stroke-width="2.5"/><text x="824" y="71" font-size="14" fill="#e5e7eb" text-anchor="start">Стаб L3</text><circle cx="954" cy="62" r="6" fill="#22c55e"/><text x="875" y="100" font-size="12" fill="#60a5fa" text-anchor="middle">стабилизация</text><text x="794" y="124" font-size="11" fill="#9ca3af" text-anchor="start">вход → выход</text><text x="956" y="124" font-size="12" fill="#e5e7eb" text-anchor="end">235 → 230В</text><text x="794" y="146" font-size="11" fill="#9ca3af" text-anchor="start">ступень</text><text x="956" y="146" font-size="12" fill="#e5e7eb" text-anchor="end">2</text><text x="794" y="168" font-size="11" fill="#9ca3af" text-anchor="start">нагрузка</text><text x="956" y="168" font-size="12" fill="#e5e7eb" text-anchor="end">12А · 2.76кВт</text><text x="794" y="190" font-size="11" fill="#9ca3af" text-anchor="start">U мин/макс</text><text x="956" y="190" font-size="12" fill="#e5e7eb" text-anchor="end">228 / 240В</text><rect x="1020" y="44" width="240" height="175" rx="12" fill="#171a20" stroke="#2b2f38" stroke-width="1.5"/><line x1="1036" y1="75" x2="1036" y2="60" stroke="#e5e7eb" stroke-width="2"/><polygon points="1036,55 1032,62 1040,62" fill="#e5e7eb"/><line x1="1048" y1="57" x2="1048" y2="72" stroke="#e5e7eb" stroke-width="2"/><polygon points="1048,77 1052,70 1044,70" fill="#e5e7eb"/><text x="1064" y="71" font-size="14" fill="#e5e7eb" text-anchor="start">Зелёный</text><circle cx="1244" cy="62" r="6" fill="#22c55e"/><text x="1140" y="94" font-size="12" fill="#60a5fa" text-anchor="middle">потребление</text><circle cx="1040" cy="115" r="5" fill="#22c55e"/><text x="1056" y="120" font-size="13" fill="#e5e7eb" text-anchor="start">L1</text><text x="1248" y="120" font-size="13" fill="#e5e7eb" text-anchor="end">230В / 5А / 1.15кВт</text><circle cx="1040" cy="147" r="5" fill="#22c55e"/><text x="1056" y="152" font-size="13" fill="#e5e7eb" text-anchor="start">L2</text><text x="1248" y="152" font-size="13" fill="#e5e7eb" text-anchor="end">230В / 5А / 1.15кВт</text><circle cx="1040" cy="179" r="5" fill="#22c55e"/><text x="1056" y="184" font-size="13" fill="#e5e7eb" text-anchor="start">L3</text><text x="1248" y="184" font-size="13" fill="#e5e7eb" text-anchor="end">230В / 5А / 1.15кВт</text><rect x="24" y="300" width="240" height="175" rx="12" fill="#171a20" stroke="#2b2f38" stroke-width="1.5"/><circle cx="37" cy="314" r="2.6" fill="#e5e7eb"/><circle cx="55" cy="314" r="2.6" fill="#e5e7eb"/><circle cx="46" cy="332" r="2.6" fill="#e5e7eb"/><line x1="37" y1="314" x2="37" y2="309" stroke="#e5e7eb" stroke-width="1.8"/><line x1="55" y1="314" x2="55" y2="309" stroke="#e5e7eb" stroke-width="1.8"/><line x1="46" y1="332" x2="37" y2="316" stroke="#e5e7eb" stroke-width="2.6"/><text x="68" y="327" font-size="14" fill="#e5e7eb" text-anchor="start">Контактор</text><circle cx="248" cy="318" r="6" fill="#22c55e"/><text x="144" y="348" font-size="16" fill="#22c55e" text-anchor="middle">ВЫКЛ → Ввод 1</text><rect x="34" y="364" width="210" height="26" rx="6" fill="#22c55e" fill-opacity="0.16" stroke="#22c55e" stroke-width="1.5"/><circle cx="52" cy="377" r="5" fill="#22c55e"/><text x="68" y="381" font-size="13" fill="#22c55e" text-anchor="start">Рыбхоз</text><text x="236" y="381" font-size="10" fill="#22c55e" text-anchor="end">по умолч.</text><rect x="34" y="394" width="210" height="26" rx="6" fill="none" stroke="#2b2f38" stroke-width="1"/><circle cx="52" cy="407" r="5" fill="#22c55e"/><text x="68" y="411" font-size="13" fill="#9ca3af" text-anchor="start">Зелёный</text><text x="236" y="411" font-size="10" fill="#9ca3af" text-anchor="end">реле вкл</text><text x="144" y="442" font-size="10" fill="#9ca3af" text-anchor="middle">перекидной · без питания → Ввод 1 (защита)</text><text x="34" y="462" font-size="10" fill="#9ca3af" text-anchor="start">RS-485 ✓</text><text x="254" y="462" font-size="10" fill="#9ca3af" text-anchor="end">отдача —</text><rect x="400" y="300" width="300" height="160" rx="12" fill="#171a20" stroke="#2b2f38" stroke-width="1.5"/><rect x="409" y="311" width="26" height="22" rx="3" fill="none" stroke="#e5e7eb" stroke-width="2"/><line x1="422" y1="313" x2="422" y2="331" stroke="#e5e7eb" stroke-width="2"/><path d="M 424 322 c 2,-5 5,-5 6,0 c 1,5 4,5 6,0" fill="none" stroke="#e5e7eb" stroke-width="1.8"/><line x1="413" y1="319" x2="419" y2="319" stroke="#e5e7eb" stroke-width="1.8"/><line x1="413" y1="325" x2="419" y2="325" stroke="#e5e7eb" stroke-width="1.8"/><text x="444" y="327" font-size="14" fill="#e5e7eb" text-anchor="start">Инвертор</text><circle cx="684" cy="318" r="6" fill="#22c55e"/><text x="560" y="327" font-size="13" fill="#22c55e" text-anchor="middle">36.8 °C</text><text x="414" y="351" font-size="12" fill="#22c55e" text-anchor="start">сеть: 1.89 кВт ✓</text><text x="686" y="351" font-size="12" fill="#22c55e" text-anchor="end">Статус: норма</text><text x="414" y="368" font-size="10" fill="#9ca3af" text-anchor="start">фаза</text><text x="536" y="368" font-size="10" fill="#9ca3af" text-anchor="start">U вход</text><text x="686" y="368" font-size="10" fill="#9ca3af" text-anchor="end">нагрузка</text><text x="414" y="386" font-size="12" fill="#e5e7eb" text-anchor="start">L1</text><text x="536" y="386" font-size="12" fill="#22c55e" text-anchor="start">230 В</text><text x="686" y="386" font-size="12" fill="#e5e7eb" text-anchor="end">585 Вт</text><text x="414" y="404" font-size="12" fill="#e5e7eb" text-anchor="start">L2</text><text x="536" y="404" font-size="12" fill="#22c55e" text-anchor="start">214 В</text><text x="686" y="404" font-size="12" fill="#e5e7eb" text-anchor="end">301 Вт</text><text x="414" y="422" font-size="12" fill="#e5e7eb" text-anchor="start">L3</text><text x="536" y="422" font-size="12" fill="#22c55e" text-anchor="start">208 В</text><text x="686" y="422" font-size="12" fill="#e5e7eb" text-anchor="end">1005 Вт</text><text x="414" y="446" font-size="10" fill="#9ca3af" text-anchor="start">сеть 50.0 Гц · реконнект 70 с</text><rect x="800" y="300" width="200" height="175" rx="12" fill="#171a20" stroke="#2b2f38" stroke-width="1.5"/><circle cx="813" cy="314" r="2.6" fill="#e5e7eb"/><circle cx="831" cy="314" r="2.6" fill="#e5e7eb"/><circle cx="822" cy="332" r="2.6" fill="#e5e7eb"/><line x1="813" y1="314" x2="813" y2="309" stroke="#e5e7eb" stroke-width="1.8"/><line x1="831" y1="314" x2="831" y2="309" stroke="#e5e7eb" stroke-width="1.8"/><line x1="822" y1="332" x2="813" y2="316" stroke="#e5e7eb" stroke-width="2.6"/><text x="844" y="327" font-size="14" fill="#e5e7eb" text-anchor="start">АВР</text><circle cx="984" cy="318" r="6" fill="#22c55e"/><text x="966" y="327" font-size="12" fill="#22c55e" text-anchor="end">0°C</text><rect x="812" y="340" width="176" height="26" rx="13" fill="#22c55e" fill-opacity="0.15" stroke="#22c55e" stroke-width="1.5"/><text x="900" y="357" font-size="11" fill="#22c55e" text-anchor="middle">АВТО — переключается сам</text><rect x="812" y="376" width="176" height="24" rx="6" fill="#22c55e" fill-opacity="0.16" stroke="#22c55e" stroke-width="1.5"/><text x="822" y="392" font-size="12" fill="#22c55e" text-anchor="start">Инвертор</text><text x="980" y="392" font-size="12" fill="#22c55e" text-anchor="end">→ Дом</text><rect x="812" y="404" width="176" height="24" rx="6" fill="none" stroke="#2b2f38" stroke-width="1"/><text x="822" y="420" font-size="12" fill="#9ca3af" text-anchor="start">Резерв · Рыбхоз</text><text x="900" y="446" font-size="11" fill="#e5e7eb" text-anchor="middle">переключений всего: 0</text><text x="900" y="464" font-size="10" fill="#9ca3af" text-anchor="middle">из них сегодня: 0</text><rect x="1140" y="290" width="280" height="190" rx="12" fill="#171a20" stroke="#2b2f38" stroke-width="1.5"/><path d="M 1150 322 L 1150 310 L 1162 300 L 1174 310 L 1174 322 Z" fill="none" stroke="#e5e7eb" stroke-width="2"/><text x="1184" y="317" font-size="14" fill="#e5e7eb" text-anchor="start">Дом</text><path fill="none" stroke="#23272f" stroke-width="14" stroke-linecap="butt" d="M 1202.0 410.0 A 78 78 0 0 1 1358.0 410.0"/><path fill="none" stroke="#22c55e" stroke-width="14" stroke-linecap="butt" d="M 1202.0 410.0 A 78 78 0 0 1 1205.8 385.9"/><path fill="none" stroke="#f5b300" stroke-width="14" stroke-linecap="butt" d="M 1205.8 385.9 A 78 78 0 0 1 1212.5 371.0"/><path fill="none" stroke="#f59e0b" stroke-width="14" stroke-linecap="butt" d="M 1212.5 371.0 A 78 78 0 0 1 1347.5 371.0"/><path fill="none" stroke="#ef4444" stroke-width="14" stroke-linecap="butt" d="M 1347.5 371.0 A 78 78 0 0 1 1358.0 410.0"/><path d="M 1201.9,391.2 L 1208.7,388.3 L 1210.2,387.9 L 1211.8,387.9 L 1213.3,388.3 L 1214.6,389.1 L 1215.6,390.3 L 1216.3,391.7 L 1216.6,393.2 L 1216.4,394.7 L 1215.9,396.2 L 1214.9,397.4 L 1213.7,398.3 L 1212.2,398.9 L 1210.7,399.0 L 1209.2,398.7 L 1207.8,398.1 L 1206.6,397.0 Z" fill="#ffffff" stroke="#0f1115" stroke-width="1"/><text x="1280" y="410" font-size="23.4" fill="#22c55e" text-anchor="middle">2.25 кВт</text><text x="1280" y="430" font-size="12" fill="#9ca3af" text-anchor="middle">потребление</text><rect x="24" y="520" width="300" height="400" rx="12" fill="#171a20" stroke="#2b2f38" stroke-width="1.5"/><rect x="34" y="534" width="22" height="16" rx="2" fill="none" stroke="#e5e7eb" stroke-width="2"/><rect x="56" y="538" width="3" height="8" fill="#e5e7eb"/><text x="68" y="547" font-size="14" fill="#e5e7eb" text-anchor="start">Батарея</text><circle cx="308" cy="538" r="6" fill="#22c55e"/><text x="286" y="547" font-size="13" fill="#22c55e" text-anchor="end">25°C</text><path fill="none" stroke="#23272f" stroke-width="13" stroke-linecap="butt" d="M 96.0 624.0 A 78 78 0 0 1 252.0 624.0"/><path fill="none" stroke="#22c55e" stroke-width="13" stroke-linecap="butt" d="M 96.0 624.0 A 78 78 0 0 1 234.1 574.3"/><path d="M 234.1,574.3 L 232.8,579.7 L 232.4,580.8 L 231.7,581.7 L 230.7,582.4 L 229.7,582.8 L 228.5,582.9 L 227.4,582.7 L 226.3,582.2 L 225.5,581.4 L 224.9,580.4 L 224.5,579.3 L 224.5,578.2 L 224.9,577.0 L 225.5,576.1 L 226.3,575.3 L 227.4,574.8 L 228.5,574.5 Z" fill="#ffffff" stroke="#0f1115" stroke-width="1"/><text x="174" y="622" font-size="28" fill="#e5e7eb" text-anchor="middle">78%</text><text x="58" y="610" font-size="11" fill="#9ca3af" text-anchor="middle">ток</text><text x="58" y="630" font-size="15" fill="#e5e7eb" text-anchor="middle">5.0 А</text><rect x="44" y="648" width="260" height="30" rx="15" fill="#f59e0b" fill-opacity="0.15" stroke="#f59e0b" stroke-width="1.5"/><polygon points="70,654 78,670 86,654" fill="#f59e0b"/><text x="190" y="668" font-size="15" fill="#f59e0b" text-anchor="middle">РАЗРЯД 2.40 кВт</text><text x="174" y="726" font-size="12" fill="#9ca3af" text-anchor="middle">доступно сейчас</text><text x="174" y="760" font-size="20" fill="#22c55e" text-anchor="middle">37.8 кВт·ч  ≈ 16ч 47м</text><text x="40" y="824" font-size="12" fill="#9ca3af" text-anchor="start">SOH</text><text x="308" y="824" font-size="13" fill="#e5e7eb" text-anchor="end">99.5 %</text><text x="174" y="856" font-size="11" fill="#9ca3af" text-anchor="middle">ёмкость 60 кВт·ч · отключение 15%</text><rect x="360" y="520" width="560" height="400" rx="12" fill="#171a20" stroke="#2b2f38" stroke-width="1.5"/><circle cx="382" cy="542" r="7" fill="none" stroke="#e5e7eb" stroke-width="2"/><line x1="392.0" y1="542.0" x2="396.0" y2="542.0" stroke="#e5e7eb" stroke-width="2"/><line x1="389.1" y1="534.9" x2="391.9" y2="532.1" stroke="#e5e7eb" stroke-width="2"/><line x1="382.0" y1="532.0" x2="382.0" y2="528.0" stroke="#e5e7eb" stroke-width="2"/><line x1="374.9" y1="534.9" x2="372.1" y2="532.1" stroke="#e5e7eb" stroke-width="2"/><line x1="372.0" y1="542.0" x2="368.0" y2="542.0" stroke="#e5e7eb" stroke-width="2"/><line x1="374.9" y1="549.1" x2="372.1" y2="551.9" stroke="#e5e7eb" stroke-width="2"/><line x1="382.0" y1="552.0" x2="382.0" y2="556.0" stroke="#e5e7eb" stroke-width="2"/><line x1="389.1" y1="549.1" x2="391.9" y2="551.9" stroke="#e5e7eb" stroke-width="2"/><text x="404" y="547" font-size="14" fill="#e5e7eb" text-anchor="start">Солнышко</text><text x="906" y="547" font-size="14" fill="#f5b300" text-anchor="end">сегодня: 14 кВт·ч</text><path fill="none" stroke="#23272f" stroke-width="14" stroke-linecap="butt" d="M 442.0 652.0 A 58 58 0 0 1 558.0 652.0"/><path fill="none" stroke="#f5b300" stroke-width="14" stroke-linecap="butt" d="M 442.0 652.0 A 58 58 0 0 1 477.8 598.4"/><path fill="none" stroke="#22c55e" stroke-width="14" stroke-linecap="butt" d="M 477.8 598.4 A 58 58 0 0 1 541.0 611.0"/><path fill="none" stroke="#ef4444" stroke-width="14" stroke-linecap="butt" d="M 541.0 611.0 A 58 58 0 0 1 558.0 652.0"/><path d="M 482.1,596.9 L 486.6,600.1 L 487.5,600.9 L 488.1,601.9 L 488.4,603.0 L 488.4,604.1 L 488.0,605.2 L 487.4,606.2 L 486.6,607.0 L 485.5,607.5 L 484.4,607.7 L 483.2,607.6 L 482.2,607.1 L 481.3,606.4 L 480.6,605.5 L 480.2,604.4 L 480.1,603.3 L 480.3,602.1 Z" fill="#ffffff" stroke="#0f1115" stroke-width="1"/><text x="500" y="652" font-size="17.4" fill="#22c55e" text-anchor="middle">3.20 кВт</text><text x="500" y="672" font-size="12" fill="#9ca3af" text-anchor="middle">Поле 1</text><text x="500" y="692" font-size="12" fill="#9ca3af" text-anchor="middle">620В · 5.2А</text><path fill="none" stroke="#23272f" stroke-width="14" stroke-linecap="butt" d="M 592.0 652.0 A 58 58 0 0 1 708.0 652.0"/><path fill="none" stroke="#f5b300" stroke-width="14" stroke-linecap="butt" d="M 592.0 652.0 A 58 58 0 0 1 627.8 598.4"/><path fill="none" stroke="#22c55e" stroke-width="14" stroke-linecap="butt" d="M 627.8 598.4 A 58 58 0 0 1 691.0 611.0"/><path fill="none" stroke="#ef4444" stroke-width="14" stroke-linecap="butt" d="M 691.0 611.0 A 58 58 0 0 1 708.0 652.0"/><path d="M 629.9,597.6 L 634.6,600.6 L 635.5,601.4 L 636.1,602.4 L 636.5,603.5 L 636.5,604.6 L 636.2,605.7 L 635.6,606.7 L 634.8,607.5 L 633.8,608.1 L 632.7,608.3 L 631.5,608.2 L 630.4,607.9 L 629.5,607.2 L 628.8,606.3 L 628.3,605.2 L 628.2,604.1 L 628.3,603.0 Z" fill="#ffffff" stroke="#0f1115" stroke-width="1"/><text x="650" y="652" font-size="17.4" fill="#22c55e" text-anchor="middle">3.10 кВт</text><text x="650" y="672" font-size="12" fill="#9ca3af" text-anchor="middle">Поле 2</text><text x="650" y="692" font-size="12" fill="#9ca3af" text-anchor="middle">618В · 5.0А</text><path fill="none" stroke="#23272f" stroke-width="14" stroke-linecap="butt" d="M 742.0 652.0 A 58 58 0 0 1 858.0 652.0"/><path fill="none" stroke="#f5b300" stroke-width="14" stroke-linecap="butt" d="M 742.0 652.0 A 58 58 0 0 1 777.8 598.4"/><path fill="none" stroke="#22c55e" stroke-width="14" stroke-linecap="butt" d="M 777.8 598.4 A 58 58 0 0 1 841.0 611.0"/><path fill="none" stroke="#ef4444" stroke-width="14" stroke-linecap="butt" d="M 841.0 611.0 A 58 58 0 0 1 858.0 652.0"/><path d="M 775.7,599.4 L 780.6,602.0 L 781.6,602.7 L 782.3,603.6 L 782.7,604.7 L 782.8,605.8 L 782.6,607.0 L 782.1,608.0 L 781.4,608.9 L 780.4,609.5 L 779.3,609.8 L 778.1,609.8 L 777.0,609.5 L 776.0,608.9 L 775.2,608.1 L 774.7,607.1 L 774.5,606.0 L 774.6,604.8 Z" fill="#ffffff" stroke="#0f1115" stroke-width="1"/><text x="800" y="652" font-size="17.4" fill="#f5b300" text-anchor="middle">2.90 кВт</text><text x="800" y="672" font-size="12" fill="#9ca3af" text-anchor="middle">Поле 3</text><text x="800" y="692" font-size="12" fill="#9ca3af" text-anchor="middle">615В · 4.7А</text><text x="380" y="802" font-size="12" fill="#9ca3af" text-anchor="start">Всего</text><rect x="380.0" y="816" width="78.8" height="46" fill="#f5b300" opacity="0.85"/><rect x="458.8" y="816" width="236.4" height="46" fill="#22c55e" opacity="0.85"/><rect x="695.2" y="816" width="78.8" height="46" fill="#f59e0b" opacity="0.85"/><rect x="773.9" y="816" width="126.1" height="46" fill="#ef4444" opacity="0.85"/><rect x="380" y="816" width="520" height="46" rx="6" fill="none" stroke="#2b2f38" stroke-width="1"/><path d="M 525.0,862 C 532.0,871 532.0,880 525.0,880 C 518.0,880 518.0,871 525.0,862 Z" fill="#ffffff" stroke="#0f1115" stroke-width="1"/><text x="640" y="849" font-size="28" fill="#ffffff" text-anchor="middle">9.20 кВт</text><rect x="956" y="520" width="464" height="300" rx="12" fill="#171a20" stroke="#2b2f38" stroke-width="1.5"/><circle cx="978" cy="542" r="12" fill="none" stroke="#e5e7eb" stroke-width="2"/><text x="978" y="547" font-size="14" font-weight="bold" fill="#e5e7eb" text-anchor="middle">G</text><text x="1000" y="547" font-size="14" fill="#e5e7eb" text-anchor="start">Генератор</text><circle cx="1404" cy="538" r="6" fill="#6b7280"/><text x="1388" y="547" font-size="15" fill="#6b7280" text-anchor="end">ВЫКЛЮЧЕН</text><rect x="972" y="568" width="220" height="30" rx="8" fill="#6b7280" fill-opacity="0.12" stroke="#6b7280" stroke-width="1.3"/><circle cx="990" cy="583" r="4" fill="none" stroke="#6b7280" stroke-width="2"/><line x1="994" y1="583" x2="1006" y2="583" stroke="#6b7280" stroke-width="2"/><line x1="1006" y1="583" x2="1006" y2="588" stroke="#6b7280" stroke-width="2"/><line x1="1002" y1="583" x2="1002" y2="587" stroke="#6b7280" stroke-width="2"/><text x="1014" y="587" font-size="12" fill="#6b7280" text-anchor="start">сигнала нет</text><rect x="1204" y="568" width="200" height="30" rx="8" fill="#9ca3af" fill-opacity="0.10" stroke="#2b2f38" stroke-width="1.3"/><path d="M 1220.0 590 q 2 -3 0 -6 q -2 -3 0 -6" fill="none" stroke="#9ca3af" stroke-width="1.8"/><path d="M 1225.0 590 q 2 -3 0 -6 q -2 -3 0 -6" fill="none" stroke="#9ca3af" stroke-width="1.8"/><path d="M 1230.0 590 q 2 -3 0 -6 q -2 -3 0 -6" fill="none" stroke="#9ca3af" stroke-width="1.8"/><text x="1242" y="587" font-size="12" fill="#9ca3af" text-anchor="start">подогрев выкл</text><text x="1396" y="587" font-size="13" fill="#e5e7eb" text-anchor="end">20°C</text><text x="972" y="644" font-size="11" fill="#9ca3af" text-anchor="start">Наработка</text><text x="972" y="668" font-size="19" fill="#e5e7eb" text-anchor="start">340.5 ч</text><text x="1404" y="644" font-size="11" fill="#9ca3af" text-anchor="end">До замены масла</text><text x="1404" y="668" font-size="19" fill="#e5e7eb" text-anchor="end">120 ч</text><text x="972" y="706" font-size="11" fill="#9ca3af" text-anchor="start">Нагрузка по фазам</text><text x="1090" y="728" font-size="10" fill="#9ca3af" text-anchor="start">U</text><text x="1404" y="728" font-size="10" fill="#9ca3af" text-anchor="end">ток · мощность</text><text x="972" y="750" font-size="13" fill="#e5e7eb" text-anchor="start">L1</text><text x="1090" y="750" font-size="13" fill="#e5e7eb" text-anchor="start">0 В</text><text x="1404" y="750" font-size="13" fill="#e5e7eb" text-anchor="end">0 А · 0.00 кВт</text><text x="972" y="772" font-size="13" fill="#e5e7eb" text-anchor="start">L2</text><text x="1090" y="772" font-size="13" fill="#e5e7eb" text-anchor="start">0 В</text><text x="1404" y="772" font-size="13" fill="#e5e7eb" text-anchor="end">0 А · 0.00 кВт</text><text x="972" y="794" font-size="13" fill="#e5e7eb" text-anchor="start">L3</text><text x="1090" y="794" font-size="13" fill="#e5e7eb" text-anchor="start">0 В</text><text x="1404" y="794" font-size="13" fill="#e5e7eb" text-anchor="end">0 А · 0.00 кВт</text></svg>