<svg xmlns="http://www.w3.org/2000/svg" viewBox="0 0 1440 808" font-family="Arial,Helvetica,sans-serif"><rect x="0" y="0" width="1440" height="830" fill="#0f1115"/><text x="1428" y="28" font-size="18" fill="#e5e7eb" text-anchor="end">Энергосистема</text><polyline fill="none" stroke="#22c55e" stroke-width="3" stroke-linejoin="round" points="264,108 360,108 "/><circle r="4.5" fill="#22c55e"><animateMotion dur="1.94s" repeatCount="indefinite" begin="-0.00s" path="M 264,108 360,108"/></circle><polyline fill="none" stroke="#22c55e" stroke-width="3" stroke-linejoin="round" points="264,144 328,144 328,30 720,30 720,44 "/><circle r="4.5" fill="#22c55e"><animateMotion dur="11.82s" repeatCount="indefinite" begin="-0.00s" path="M 264,144 328,144 328,30 720,30 720,44"/></circle><circle r="4.5" fill="#22c55e"><animateMotion dur="11.82s" repeatCount="indefinite" begin="-2.36s" path="M 264,144 328,144 328,30 720,30 720,44"/></circle><circle r="4.5" fill="#22c55e"><animateMotion dur="11.82s" repeatCount="indefinite" begin="-4.73s" path="M 264,144 328,144 328,30 720,30 720,44"/></circle><circle r="4.5" fill="#22c55e"><animateMotion dur="11.82s" repeatCount="indefinite" begin="-7.09s" path="M 264,144 328,144 328,30 720,30 720,44"/></circle><circle r="4.5" fill="#22c55e"><animateMotion dur="11.82s" repeatCount="indefinite" begin="-9.46s" path="M 264,144 328,144 328,30 720,30 720,44"/></circle><polyline fill="none" stroke="#22c55e" stroke-width="3" stroke-linejoin="round" points="264,180 284,180 284,14 985,14 985,44 "/><circle r="4.5" fill="#22c55e"><animateMotion dur="18.56s" repeatCount="indefinite" begin="-0.00s" path="M 264,180 284,180 284,14 985,14 985,44"/></circle><circle r="4.5" fill="#22c55e"><animateMotion dur="18.56s" repeatCount="indefinite" begin="-2.32s" path="M 264,180 284,180 284,14 985,14 985,44"/></circle><circle r="4.5" fill="#22c55e"><animateMotion dur="18.56s" repeatCount="indefinite" begin="-4.64s" path="M 264,180 284,180 284,14 985,14 985,44"/></circle><circle r="4.5" fill="#22c55e"><animateMotion dur="18.56s" repeatCount="indefinite" begin="-6.96s" path="M 264,180 284,180 284,14 985,14 985,44"/></circle><circle r="4.5" fill="#22c55e"><animateMotion dur="18.56s" repeatCount="indefinite" begin="-9.28s" path="M 264,180 284,180 284,14 985,14 985,44"/></circle><circle r="4.5" fill="#22c55e"><animateMotion dur="18.56s" repeatCount="indefinite" begin="-11.60s" path="M 264,180 284,180 284,14 985,14 985,44"/></circle><circle r="4.5" fill="#22c55e"><animateMotion dur="18.56s" repeatCount="indefinite" begin="-13.92s" path="M 264,180 284,180 284,14 985,14 985,44"/></circle><circle r="4.5" fill="#22c55e"><animateMotion dur="18.56s" repeatCount="indefinite" begin="-16.24s" path="M 264,180 284,180 284,14 985,14 985,44"/></circle><polyline fill="none" stroke="#22c55e" stroke-width="3" stroke-linejoin="round" points="455,219 455,275 "/><circle r="4.5" fill="#22c55e"><animateMotion dur="0.97s" repeatCount="indefinite" begin="-0.00s" path="M 455,219 455,275"/></circle><polyline fill="none" stroke="#22c55e" stroke-width="3" stroke-linejoin="round" points="720,219 720,275 "/><circle r="4.5" fill="#22c55e"><animateMotion dur="0.97s" repeatCount="indefinite" begin="-0.00s" path="M 720,219 720,275"/></circle><polyline fill="none" stroke="#22c55e" stroke-width="3" stroke-linejoin="round" points="985,219 985,275 "/><circle r="4.5" fill="#22c55e"><animateMotion dur="0.97s" repeatCount="indefinite" begin="-0.00s" path="M 985,219 985,275"/></circle><polyline fill="none" stroke="#22c55e" stroke-width="3" stroke-linejoin="round" points="455,275 985,275 "/><polyline fill="none" stroke="#22c55e" stroke-width="3" stroke-linejoin="round" points="455,275 132,275 132,300 "/><circle r="4.5" fill="#22c55e"><animateMotion dur="6.01s" repeatCount="indefinite" begin="-0.00s" path="M 455,275 132,275 132,300"/></circle><circle r="4.5" fill="#22c55e"><animateMotion dur="6.01s" repeatCount="indefinite" begin="-2.00s" path="M 455,275 132,275 132,300"/></circle><circle r="4.5" fill="#22c55e"><animateMotion dur="6.01s" repeatCount="indefinite" begin="-4.00s" path="M 455,275 132,275 132,300"/></circle><polyline fill="none" stroke="#6b7280" stroke-width="2" stroke-linejoin="round" stroke-dasharray="7 7" points="905,275 905,300 "/><polyline fill="none" stroke="#6b7280" stroke-width="2" stroke-linejoin="round" stroke-dasharray="7 7" points="1300,219 1300,252 156,252 156,300 "/><polyline fill="none" stroke="#22c55e" stroke-width="3" stroke-linejoin="round" points="264,380 400,380 "/><circle r="4.5" fill="#22c55e"><animateMotion dur="2.75s" repeatCount="indefinite" begin="-0.00s" path="M 264,380 400,380"/></circle><polyline fill="none" stroke="#22c55e" stroke-width="3" stroke-linejoin="round" points="740,380 800,380 "/><circle r="4.5" fill="#22c55e"><animateMotion dur="0.90s" repeatCount="indefinite" begin="-0.00s" path="M 740,380 800,380"/></circle><polyline fill="none" stroke="#22c55e" stroke-width="3" stroke-linejoin="round" points="1000,380 1140,380 "/><circle r="4.5" fill="#22c55e"><animateMotion dur="2.42s" repeatCount="indefinite" begin="-0.00s" path="M 1000,380 1140,380"/></circle><polyline fill="none" stroke="#a78bfa" stroke-width="3" stroke-linejoin="round" points="174,520 174,494 470,494 470,475 "/><circle r="4.5" fill="#a78bfa"><animateMotion dur="6.46s" repeatCount="indefinite" begin="-0.00s" path="M 174,520 174,494 470,494 470,475"/></circle><circle r="4.5" fill="#a78bfa"><animateMotion dur="6.46s" repeatCount="indefinite" begin="-2.15s" path="M 174,520 174,494 470,494 470,475"/></circle><circle r="4.5" fill="#a78bfa"><animateMotion dur="6.46s" repeatCount="indefinite" begin="-4.30s" path="M 174,520 174,494 470,494 470,475"/></circle><polyline fill="none" stroke="#f5b300" stroke-width="3" stroke-linejoin="round" points="540,520 540,475 "/><circle r="4.5" fill="#f5b300"><animateMotion dur="0.41s" repeatCount="indefinite" begin="-0.00s" path="M 540,520 540,475"/></circle><polyline fill="none" stroke="#6b7280" stroke-width="2" stroke-linejoin="round" stroke-dasharray="7 7" points="1060,520 1060,494 588,494 588,475 "/><rect x="24" y="44" width="240" height="175" rx="12" fill="#171a20" stroke="#2b2f38" stroke-width="1.5"/><g fill="#e5e7eb"><ellipse cx="44" cy="66" rx="11" ry="6.5"/><polygon points="54,66 63,60 63,72"/></g><circle cx="39" cy="64.5" r="1.5" fill="#0f1115"/><text x="68" y="71" font-size="14" fill="#e5e7eb" text-anchor="start">Рыбхоз</text><circle cx="248" cy="62" r="6" fill="#22c55e"/><circle cx="44" cy="103" r="5" fill="#22c55e"/><text x="60" y="108" font-size="13" fill="#e5e7eb" text-anchor="start">L1</text><text x="252" y="108" font-size="13" fill="#e5e7eb" text-anchor="end">235В / 12А / 2.82кВт</text><circle cx="44" cy="139" r="5" fill="#22c55e"/><text x="60" y="144" font-size="13" fill="#e5e7eb" text-anchor="start">L2</text><text x="252" y="144" font-size="13" fill="#e5e7eb" text-anchor="end">235В / 12А / 2.82кВт</text><circle cx="44" cy="175" r="5" fill="#22c55e"/><text x="60" y="180" font-size="13" fill="#e5e7eb" text-anchor="start">L3</text><text x="252" y="180" font-size="13" fill="#e5e7eb" text-anchor="end">235В / 12А / 2.82кВт</text><text x="34" y="210" font-size="10" fill="#9ca3af" text-anchor="start">RS-485 ✓</text><rect x="360" y="44" width="190" height="175" rx="12" fill="#171a20" stroke="#2b2f38" stroke-width="1.5"/><path d="M 369 66 c 3,-13 8,-13 11,0 c 3,13 8,13 11,0" fill="none" stroke="#e5e7eb" stroke-width="2.5"/><text x="404" y="71" font-size="14" fill="#e5e7eb" text-anchor="start">Стаб L1</text><circle cx="534" cy="62" r="6" fill="#22c55e"/><text x="370" y="213" font-size="10" fill="#9ca3af" text-anchor="start">RS-485 ✓</text><text x="455" y="100" font-size="12" fill="#60a5fa" text-anchor="middle">стабилизация</text><text x="374" y="124" font-size="11" fill="#9ca3af" text-anchor="start">вход → выход</text><text x="536" y="124" font-size="12" fill="#e5e7eb" text-anchor="end">235 → 230В</text><text x="374" y="146" font-size="11" fill="#9ca3af" text-anchor="start">ступень</text><text x="536" y="146" font-size="12" fill="#e5e7eb" text-anchor="end">2</text><text x="374" y="168" font-size="11" fill="#9ca3af" text-anchor="start">нагрузка</text><text x="536" y="168" font-size="12" fill="#e5e7eb" text-anchor="end">12А · 2.76кВт</text><text x="374" y="190" font-size="11" fill="#9ca3af" text-anchor="start">U мин/макс</text><text x="536" y="190" font-size="12" fill="#e5e7eb" text-anchor="end">228 / 240В</text><rect x="625" y="44" width="190" height="175" rx="12" fill="#171a20" stroke="#2b2f38" stroke-width="1.5"/><path d="M 634 66 c 3,-13 8,-13 11,0 c 3,13 8,13 11,0" fill="none" stroke="#e5e7eb" stroke-width="2.5"/><text x="669" y="71" font-size="14" fill="#e5e7eb" text-anchor="start">Стаб L2</text><circle cx="799" cy="62" r="6" fill="#22c55e"/><text x="635" y="213" font-size="10" fill="#9ca3af" text-anchor="start">RS-485 ✓</text><text x="720" y="100" font-size="12" fill="#60a5fa" text-anchor="middle">стабилизация</text><text x="639" y="124" font-size="11" fill="#9ca3af" text-anchor="start">вход → выход</text><text x="801" y="124" font-size="12" fill="#e5e7eb" text-anchor="end">235 → 230В</text><text x="639" y="146" font-size="11" fill="#9ca3af" text-anchor="start">ступень</text><text x="801" y="146" font-size="12" fill="#e5e7eb" text-anchor="end">2</text><text x="639" y="168" font-size="11" fill="#9ca3af" text-anchor="start">нагрузка</text><text x="801" y="168" font-size="12" fill="#e5e7eb" text-anchor="end">12А · 2.76кВт</text><text x="639" y="190" font-size="11" fill="#9ca3af" text-anchor="start">U мин/макс</text><text x="801" y="190" font-size="12" fill="#e5e7eb" text-anchor="end">228 / 240В</text><rect x="890" y="44" width="190" height="175" rx="12" fill="#171a20" stroke="#2b2f38" stroke-width="1.5"/><path d="M 899 66 c 3,-13 8,-13 11,0 c 3,13 8,13 11,0" fill="none" stroke="#e5e7eb" stroke-width="2.5"/><text x="934" y="71" font-size="14" fill="#e5e7eb" text-anchor="start">Стаб L3</text><circle cx="1064" cy="62" r="6" fill="#22c55e"/><text x="900" y="213" font-size="10" fill="#9ca3af" text-anchor="start">RS-485 ✓</text><text x="985" y="100" font-size="12" fill="#60a5fa" text-anchor="middle">стабилизация</text><text x="904" y="124" font-size="11" fill="#9ca3af" text-anchor="start">вход → выход</text><text x="1066" y="124" font-size="12" fill="#e5e7eb" text-anchor="end">235 → 230В</text><text x="904" y="146" font-size="11" fill="#9ca3af" text-anchor="start">ступень</text><text x="1066" y="146" font-size="12" fill="#e5e7eb" text-anchor="end">2</text><text x="904" y="168" font-size="11" fill="#9ca3af" text-anchor="start">нагрузка</text><text x="1066" y="168" font-size="12" fill="#e5e7eb" text-anchor="end">12А · 2.76кВт</text><text x="904" y="190" font-size="11" fill="#9ca3af" text-anchor="start">U мин/макс</text><text x="1066" y="190" font-size="12" fill="#e5e7eb" text-anchor="end">228 / 240В</text><rect x="1180" y="44" width="240" height="175" rx="12" fill="#171a20" stroke="#2b2f38" stroke-width="1.5"/><line x1="1196" y1="75" x2="1196" y2="60" stroke="#e5e7eb" stroke-width="2"/><polygon points="1196,55 1192,62 1200,62" fill="#e5e7eb"/><line x1="1208" y1="57" x2="1208" y2="72" stroke="#e5e7eb" stroke-width="2"/><polygon points="1208,77 1212,70 1204,70" fill="#e5e7eb"/><text x="1224" y="71" font-size="14" fill="#e5e7eb" text-anchor="start">Зелёный</text><circle cx="1404" cy="62" r="6" fill="#22c55e"/><text x="1300" y="94" font-size="12" fill="#60a5fa" text-anchor="middle">потребление</text><circle cx="1200" cy="115" r="5" fill="#22c55e"/><text x="1216" y="120" font-size="13" fill="#e5e7eb" text-anchor="start">L1</text><text x="1408" y="120" font-size="13" fill="#e5e7eb" text-anchor="end">230В / 5А / 1.15кВт</text><circle cx="1200" cy="147" r="5" fill="#22c55e"/><text x="1216" y="152" font-size="13" fill="#e5e7eb" text-anchor="start">L2</text><text x="1408" y="152" font-size="13" fill="#e5e7eb" text-anchor="end">230В / 5А / 1.15кВт</text><circle cx="1200" cy="179" r="5" fill="#22c55e"/><text x="1216" y="184" font-size="13" fill="#e5e7eb" text-anchor="start">L3</text><text x="1408" y="184" font-size="13" fill="#e5e7eb" text-anchor="end">230В / 5А / 1.15кВт</text><text x="1190" y="210" font-size="10" fill="#9ca3af" text-anchor="start">RS-485 ✓</text><rect x="24" y="300" width="240" height="175" rx="12" fill="#171a20" stroke="#2b2f38" stroke-width="1.5"/><circle cx="37" cy="314" r="2.6" fill="#e5e7eb"/><circle cx="55" cy="314" r="2.6" fill="#e5e7eb"/><circle cx="46" cy="332" r="2.6" fill="#e5e7eb"/><line x1="37" y1="314" x2="37" y2="309" stroke="#e5e7eb" stroke-width="1.8"/><line x1="55" y1="314" x2="55" y2="309" stroke="#e5e7eb" stroke-width="1.8"/><line x1="46" y1="332" x2="37" y2="316" stroke="#e5e7eb" stroke-width="2.6"/><text x="68" y="327" font-size="14" fill="#e5e7eb" text-anchor="start">Контактор</text><circle cx="248" cy="318" r="6" fill="#22c55e"/><text x="144" y="348" font-size="16" fill="#22c55e" text-anchor="middle">ВЫКЛ → Ввод 1</text><rect x="34" y="364" width="210" height="26" rx="6" fill="#22c55e" fill-opacity="0.16" stroke="#22c55e" stroke-width="1.5"/><circle cx="52" cy="377" r="5" fill="#22c55e"/><text x="68" y="381" font-size="13" fill="#22c55e" text-anchor="start">Рыбхоз</text><text x="236" y="381" font-size="10" fill="#22c55e" text-anchor="end">по умолч.</text><rect x="34" y="394" width="210" height="26" rx="6" fill="none" stroke="#2b2f38" stroke-width="1"/><circle cx="52" cy="407" r="5" fill="#22c55e"/><text x="68" y="411" font-size="13" fill="#9ca3af" text-anchor="start">Зелёный</text><text x="236" y="411" font-size="10" fill="#9ca3af" text-anchor="end">тап →</text><rect x="34" y="394" width="210" height="26" rx="6" fill="transparent" style="cursor:pointer" data-act="contactor" data-val="in2"/><text x="144" y="442" font-size="10" fill="#9ca3af" text-anchor="middle">перекидной · без питания → Ввод 1 (защита)</text><text x="34" y="462" font-size="10" fill="#9ca3af" text-anchor="start">RS-485 ✓</text><text x="254" y="462" font-size="10" fill="#9ca3af" text-anchor="end">отдача —</text><rect x="400" y="300" width="340" height="175" rx="12" fill="#171a20" stroke="#2b2f38" stroke-width="1.5"/><rect x="409" y="311" width="26" height="22" rx="3" fill="none" stroke="#e5e7eb" stroke-width="2"/><line x1="422" y1="313" x2="422" y2="331" stroke="#e5e7eb" stroke-width="2"/><path d="M 424 322 c 2,-5 5,-5 6,0 c 1,5 4,5 6,0" fill="none" stroke="#e5e7eb" stroke-width="1.8"/><line x1="413" y1="319" x2="419" y2="319" stroke="#e5e7eb" stroke-width="1.8"/><line x1="413" y1="325" x2="419" y2="325" stroke="#e5e7eb" stroke-width="1.8"/><text x="444" y="327" font-size="14" fill="#e5e7eb" text-anchor="start">Инвертор</text><circle cx="724" cy="318" r="6" fill="#22c55e"/><text x="555" y="327" font-size="13" fill="#22c55e" text-anchor="middle">36.8 °C</text><text x="595" y="327" font-size="11" text-anchor="start" fill="#9ca3af"><tspan fill="#f5b300">↓ 0</tspan> <tspan fill="#22c55e">↑ 0</tspan> кВт·ч</text><text x="414" y="351" font-size="12" fill="#22c55e" text-anchor="start">сеть: 1.89 кВт ✓</text><text x="726" y="351" font-size="12" fill="#22c55e" text-anchor="end">Статус: норма</text><text x="414" y="370" font-size="12" fill="#e5e7eb" text-anchor="start">фаза</text><text x="519" y="370" font-size="12" fill="#9ca3af" text-anchor="middle">сеть · вход</text><text x="669" y="370" font-size="12" fill="#9ca3af" text-anchor="middle">инвертор → дом</text><text x="414" y="392" font-size="14" fill="#e5e7eb" text-anchor="start">L1</text><text x="506" y="392" font-size="14" fill="#e5e7eb" text-anchor="end">230 В</text><text x="572" y="392" font-size="14" fill="#e5e7eb" text-anchor="end">585 Вт</text><text x="652" y="392" font-size="14" fill="#e5e7eb" text-anchor="end">0 В</text><text x="726" y="392" font-size="14" fill="#e5e7eb" text-anchor="end">0 Вт</text><text x="414" y="412" font-size="14" fill="#e5e7eb" text-anchor="start">L2</text><text x="506" y="412" font-size="14" fill="#e5e7eb" text-anchor="end">214 В</text><text x="572" y="412" font-size="14" fill="#e5e7eb" text-anchor="end">301 Вт</text><text x="652" y="412" font-size="14" fill="#e5e7eb" text-anchor="end">0 В</text><text x="726" y="412" font-size="14" fill="#e5e7eb" text-anchor="end">0 Вт</text><text x="414" y="432" font-size="14" fill="#e5e7eb" text-anchor="start">L3</text><text x="506" y="432" font-size="14" fill="#e5e7eb" text-anchor="end">208 В</text><text x="572" y="432" font-size="14" fill="#e5e7eb" text-anchor="end">1005 Вт</text><text x="652" y="432" font-size="14" fill="#e5e7eb" text-anchor="end">0 В</text><text x="726" y="432" font-size="14" fill="#e5e7eb" text-anchor="end">0 Вт</text><text x="414" y="462" font-size="10" fill="#9ca3af" text-anchor="start">сеть 50.0 Гц · реконнект 0 с</text><text x="702" y="462" font-size="10" fill="#6b7280" text-anchor="end">пуск</text><circle cx="720" cy="458" r="9" fill="none" stroke="#6b7280" stroke-width="2"/><text x="720" y="462" font-size="11" fill="#6b7280" text-anchor="middle">G</text><rect x="800" y="300" width="200" height="175" rx="12" fill="#171a20" stroke="#2b2f38" stroke-width="1.5"/><circle cx="813" cy="314" r="2.6" fill="#e5e7eb"/><circle cx="831" cy="314" r="2.6" fill="#e5e7eb"/><circle cx="822" cy="332" r="2.6" fill="#e5e7eb"/><line x1="813" y1="314" x2="813" y2="309" stroke="#e5e7eb" stroke-width="1.8"/><line x1="831" y1="314" x2="831" y2="309" stroke="#e5e7eb" stroke-width="1.8"/><line x1="822" y1="332" x2="813" y2="316" stroke="#e5e7eb" stroke-width="2.6"/><text x="844" y="327" font-size="14" fill="#e5e7eb" text-anchor="start">АВР</text><circle cx="984" cy="318" r="6" fill="#22c55e"/><text x="966" y="327" font-size="12" fill="#22c55e" text-anchor="end">0°C</text><rect x="812" y="340" width="176" height="26" rx="13" fill="#22c55e" fill-opacity="0.15" stroke="#22c55e" stroke-width="1.5"/><text x="900" y="357" font-size="11" fill="#22c55e" text-anchor="middle">АВТО — переключается сам</text><rect x="812" y="376" width="176" height="24" rx="6" fill="#22c55e" fill-opacity="0.16" stroke="#22c55e" stroke-width="1.5"/><text x="822" y="392" font-size="12" fill="#22c55e" text-anchor="start">Инвертор</text><text x="980" y="392" font-size="12" fill="#22c55e" text-anchor="end">→ Дом</text><rect x="812" y="404" width="176" height="24" rx="6" fill="none" stroke="#2b2f38" stroke-width="1"/><text x="822" y="420" font-size="12" fill="#9ca3af" text-anchor="start">Резерв · Рыбхоз</text><text x="900" y="444" font-size="11" fill="#e5e7eb" text-anchor="middle">переключений: всего 0 / сегодня 0</text><text x="812" y="464" font-size="10" fill="#9ca3af" text-anchor="start">RS-485 ✓</text><rect x="1140" y="290" width="280" height="190" rx="12" fill="#171a20" stroke="#2b2f38" stroke-width="1.5"/><path d="M 1150 322 L 1150 310 L 1162 300 L 1174 310 L 1174 322 Z" fill="none" stroke="#e5e7eb" stroke-width="2"/><text x="1184" y="317" font-size="14" fill="#e5e7eb" text-anchor="start">Дом</text><text x="1404" y="314" font-size="12" fill="#9ca3af" text-anchor="end">24ч: 54 кВт·ч</text><path fill="none" stroke="#23272f" stroke-width="14" stroke-linecap="butt" d="M 1202.0 410.0 A 78 78 0 0 1 1358.0 410.0"/><path fill="none" stroke="#22c55e" stroke-width="14" stroke-linecap="butt" d="M 1202.0 410.0 A 78 78 0 0 1 1203.7 393.8"/><path fill="none" stroke="#f5b300" stroke-width="14" stroke-linecap="butt" d="M 1203.7 393.8 A 78 78 0 0 1 1206.7 383.3"/><path fill="none" stroke="#f59e0b" stroke-width="14" stroke-linecap="butt" d="M 1206.7 383.3 A 78 78 0 0 1 1293.5 333.2"/><path fill="none" stroke="#ef4444" stroke-width="14" stroke-linecap="butt" d="M 1293.5 333.2 A 78 78 0 0 1 1332.2 352.0"/><path fill="none" stroke="#b91c1c" stroke-width="14" stroke-linecap="butt" d="M 1332.2 352.0 A 78 78 0 0 1 1358.0 410.0"/><path d="M 1200.6,397.4 L 1207.2,393.9 L 1208.7,393.4 L 1210.3,393.3 L 1211.8,393.6 L 1213.1,394.3 L 1214.3,395.4 L 1215.1,396.7 L 1215.4,398.2 L 1215.4,399.8 L 1215.0,401.3 L 1214.1,402.6 L 1213.0,403.6 L 1211.6,404.2 L 1210.0,404.5 L 1208.5,404.3 L 1207.1,403.8 L 1205.8,402.8 Z" fill="#ffffff" stroke="#0f1115" stroke-width="1"/><text x="1280" y="410" font-size="23.4" fill="#22c55e" text-anchor="middle">2.25 кВт</text><text x="1280" y="430" font-size="12" fill="#9ca3af" text-anchor="middle">потребление</text><polyline fill="none" stroke="#9ca3af" stroke-width="1.5" stroke-linejoin="round" points="1195,410 1189,410 "/><text x="1179" y="413" font-size="10" fill="#9ca3af" text-anchor="middle">0</text><polyline fill="none" stroke="#9ca3af" stroke-width="1.5" stroke-linejoin="round" points="1200.1261272331978,380.92828781731816 1194.4879715084824,378.87616695736415 "/><text x="1185.0910453006234" y="378.45596552410746" font-size="10" fill="#9ca3af" text-anchor="middle">5</text><polyline fill="none" stroke="#9ca3af" stroke-width="1.5" stroke-linejoin="round" points="1294.760095101689,326.2913409939623 1295.8019841676908,320.3824944758891 "/><text x="1297.53846594436" y="313.53441694576696" font-size="10" fill="#9ca3af" text-anchor="middle">25</text><polyline fill="none" stroke="#9ca3af" stroke-width="1.5" stroke-linejoin="round" points="1336.876101540503,346.8326898344215 1340.8908851786562,342.3738208815571 "/><text x="1347.5821912422448" y="337.9423726267832" font-size="10" fill="#9ca3af" text-anchor="middle">33</text><polyline fill="none" stroke="#9ca3af" stroke-width="1.5" stroke-linejoin="round" points="1365,410 1371,410 "/><text x="1381" y="413" font-size="10" fill="#9ca3af" text-anchor="middle">45</text><path d="M 1205.3,398.2 L 1198.7,401.7 L 1197.2,402.2 L 1195.7,402.3 L 1194.2,402.0 L 1192.8,401.3 L 1191.7,400.2 L 1190.9,398.9 L 1190.5,397.4 L 1190.5,395.8 L 1191.0,394.3 L 1191.8,393.0 L 1193.0,392.0 L 1194.4,391.3 L 1195.9,391.1 L 1197.4,391.3 L 1198.9,391.8 L 1200.1,392.8 Z" fill="#ef4444" stroke="#0f1115" stroke-width="1"/><polyline fill="none" stroke="#ef4444" stroke-width="1.5" stroke-linejoin="round" points="1191.1080493464376,395.9208981463792 1184.1942309622716,394.8258568910976 "/><text x="1174.3173475563203" y="396.2615122406953" font-size="11" fill="#ef4444" text-anchor="middle">2.2</text><path d="M 1205.3,398.2 L 1198.7,401.7 L 1197.2,402.2 L 1195.7,402.3 L 1194.2,402.0 L 1192.8,401.3 L 1191.7,400.2 L 1190.9,398.9 L 1190.5,397.4 L 1190.5,395.8 L 1191.0,394.3 L 1191.8,393.0 L 1193.0,392.0 L 1194.4,391.3 L 1195.9,391.1 L 1197.4,391.3 L 1198.9,391.8 L 1200.1,392.8 Z" fill="#60a5fa" stroke="#0f1115" stroke-width="1"/><polyline fill="none" stroke="#60a5fa" stroke-width="1.5" stroke-linejoin="round" points="1191.1080493464376,395.9208981463792 1184.1942309622716,394.8258568910976 "/><text x="1174.3173475563203" y="396.2615122406953" font-size="11" fill="#60a5fa" text-anchor="middle">2.2</text><text x="1280" y="465" font-size="14" fill="#e5e7eb" text-anchor="middle">24ч · средн/макс: 2.2 / 2.2 кВт</text><rect x="24" y="520" width="300" height="280" rx="12" fill="#171a20" stroke="#2b2f38" stroke-width="1.5"/><rect x="34" y="534" width="22" height="16" rx="2" fill="none" stroke="#e5e7eb" stroke-width="2"/><rect x="56" y="538" width="3" height="8" fill="#e5e7eb"/><text x="68" y="547" font-size="14" fill="#e5e7eb" text-anchor="start">Батарея</text><circle cx="308" cy="538" r="6" fill="#22c55e"/><text x="286" y="547" font-size="13" fill="#22c55e" text-anchor="end">25°C</text><path fill="none" stroke="#23272f" stroke-width="13" stroke-linecap="butt" d="M 106.0 610.0 A 68 68 0 0 1 242.0 610.0"/><path fill="none" stroke="#22c55e" stroke-width="13" stroke-linecap="butt" d="M 106.0 610.0 A 68 68 0 0 1 226.4 566.7"/><path d="M 226.4,566.7 L 225.1,572.1 L 224.7,573.2 L 224.0,574.1 L 223.0,574.8 L 221.9,575.2 L 220.8,575.3 L 219.7,575.1 L 218.6,574.6 L 217.8,573.8 L 217.2,572.8 L 216.8,571.7 L 216.8,570.5 L 217.2,569.4 L 217.8,568.4 L 218.6,567.7 L 219.7,567.1 L 220.8,566.9 Z" fill="#ffffff" stroke="#0f1115" stroke-width="1"/><path d="M 225.5,567.4 L 227.0,561.0 L 227.5,559.8 L 228.3,558.7 L 229.4,557.9 L 230.7,557.4 L 232.0,557.3 L 233.4,557.6 L 234.6,558.2 L 235.6,559.1 L 236.3,560.2 L 236.6,561.5 L 236.6,562.9 L 236.3,564.2 L 235.6,565.3 L 234.6,566.2 L 233.3,566.8 L 232.0,567.1 Z" fill="#ef4444" stroke="#0f1115" stroke-width="1"/><polyline fill="none" stroke="#ef4444" stroke-width="1.5" stroke-linejoin="round" points="235.64105942206314,559.0060808201048 241.03465212149365,554.544112891864 "/><text x="248.73978454925157" y="551.1698729943771" font-size="11" fill="#ef4444" text-anchor="middle">78%</text><text x="174" y="608" font-size="26" fill="#e5e7eb" text-anchor="middle">78%</text><text x="54" y="596" font-size="11" fill="#9ca3af" text-anchor="middle">ток</text><text x="54" y="616" font-size="15" fill="#e5e7eb" text-anchor="middle">5.0 А</text><text x="294" y="596" font-size="11" fill="#9ca3af" text-anchor="middle">SOH</text><text x="294" y="616" font-size="15" fill="#e5e7eb" text-anchor="middle">99%</text><rect x="44" y="634" width="260" height="26" rx="13" fill="#f59e0b" fill-opacity="0.15" stroke="#f59e0b" stroke-width="1.5"/><polygon points="70,654 78,640 86,654" fill="#f59e0b"/><text x="190" y="652" font-size="14" fill="#f59e0b" text-anchor="middle">РАЗРЯД 2.40 кВт</text><text x="40" y="690" font-size="13" fill="#9ca3af" text-anchor="start">Доступно</text><text x="308" y="690" font-size="20" fill="#22c55e" text-anchor="end">37.6 кВт·ч</text><text x="40" y="716" font-size="13" fill="#9ca3af" text-anchor="start">Только от АКБ</text><text x="308" y="716" font-size="20" fill="#e5e7eb" text-anchor="end">≈ 16 ч 42 м</text><text x="40" y="742" font-size="13" fill="#9ca3af" text-anchor="start">Прогноз на 48 ч</text><text x="308" y="742" font-size="20" fill="#22c55e" text-anchor="end">≈ 16 ч 42 м</text><text x="174" y="762" font-size="9" fill="#9ca3af" text-anchor="middle">без прогноза · нагрузка 2.2 кВт</text><text x="174" y="790" font-size="9" fill="#9ca3af" text-anchor="middle">ёмкость 60 · SOH 99% → 60 кВт·ч · отключ. 15%</text><rect x="360" y="520" width="560" height="280" rx="12" fill="#171a20" stroke="#2b2f38" stroke-width="1.5"/><circle cx="382" cy="542" r="7" fill="none" stroke="#e5e7eb" stroke-width="2"/><line x1="392.0" y1="542.0" x2="396.0" y2="542.0" stroke="#e5e7eb" stroke-width="2"/><line x1="389.1" y1="534.9" x2="391.9" y2="532.1" stroke="#e5e7eb" stroke-width="2"/><line x1="382.0" y1="532.0" x2="382.0" y2="528.0" stroke="#e5e7eb" stroke-width="2"/><line x1="374.9" y1="534.9" x2="372.1" y2="532.1" stroke="#e5e7eb" stroke-width="2"/><line x1="372.0" y1="542.0" x2="368.0" y2="542.0" stroke="#e5e7eb" stroke-width="2"/><line x1="374.9" y1="549.1" x2="372.1" y2="551.9" stroke="#e5e7eb" stroke-width="2"/><line x1="382.0" y1="552.0" x2="382.0" y2="556.0" stroke="#e5e7eb" stroke-width="2"/><line x1="389.1" y1="549.1" x2="391.9" y2="551.9" stroke="#e5e7eb" stroke-width="2"/><text x="404" y="547" font-size="14" fill="#e5e7eb" text-anchor="start">Солнышко</text><text x="906" y="547" font-size="14" fill="#f5b300" text-anchor="end">сегодня 14 кВт·ч</text><path fill="none" stroke="#23272f" stroke-width="14" stroke-linecap="butt" d="M 418.0 646.0 A 52 52 0 0 1 522.0 646.0"/><path fill="none" stroke="#f5b300" stroke-width="14" stroke-linecap="butt" d="M 418.0 646.0 A 52 52 0 0 1 451.6 597.4"/><path fill="none" stroke="#22c55e" stroke-width="14" stroke-linecap="butt" d="M 451.6 597.4 A 52 52 0 0 1 508.9 611.5"/><path fill="none" stroke="#ef4444" stroke-width="14" stroke-linecap="butt" d="M 508.9 611.5 A 52 52 0 0 1 522.0 646.0"/><path d="M 433.3,610.2 L 438.3,610.9 L 439.3,611.1 L 440.2,611.7 L 440.9,612.4 L 441.3,613.3 L 441.5,614.4 L 441.5,615.4 L 441.1,616.4 L 440.5,617.2 L 439.7,617.8 L 438.7,618.2 L 437.7,618.3 L 436.7,618.1 L 435.7,617.7 L 435.0,617.0 L 434.4,616.1 L 434.1,615.1 Z" fill="#ffffff" stroke="#0f1115" stroke-width="1"/><text x="470" y="646" font-size="15.6" fill="#f5b300" text-anchor="middle">3.20 кВт</text><text x="470" y="666" font-size="12" fill="#9ca3af" text-anchor="middle">Поле 1</text><text x="470" y="626" font-size="10" fill="#9ca3af" text-anchor="middle">0.0 кВт·ч</text><polyline fill="none" stroke="#9ca3af" stroke-width="1.5" stroke-linejoin="round" points="411,646 405,646 "/><text x="395" y="649" font-size="10" fill="#9ca3af" text-anchor="middle">0</text><polyline fill="none" stroke="#9ca3af" stroke-width="1.5" stroke-linejoin="round" points="449.0783116644904,590.8340416815605 446.9506823422352,585.223944225448 "/><text x="443.40463347180986" y="578.8737817985939" font-size="10" fill="#9ca3af" text-anchor="middle">5</text><polyline fill="none" stroke="#9ca3af" stroke-width="1.5" stroke-linejoin="round" points="514.1621341420949,606.8757631637931 518.6531986311215,602.8970272143483 "/><text x="526.1383061128327" y="599.2658006319404" font-size="10" fill="#9ca3af" text-anchor="middle">10</text><polyline fill="none" stroke="#9ca3af" stroke-width="1.5" stroke-linejoin="round" points="529,646 535,646 "/><text x="545" y="649" font-size="10" fill="#9ca3af" text-anchor="middle">13</text><path d="M 432.2,609.1 L 427.3,608.5 L 426.3,608.2 L 425.4,607.7 L 424.7,606.9 L 424.2,606.0 L 424.0,605.0 L 424.1,604.0 L 424.5,603.0 L 425.1,602.2 L 425.9,601.5 L 426.9,601.2 L 427.9,601.0 L 428.9,601.2 L 429.9,601.7 L 430.6,602.4 L 431.2,603.2 L 431.5,604.2 Z" fill="#ef4444" stroke="#0f1115" stroke-width="1"/><polyline fill="none" stroke="#ef4444" stroke-width="1.5" stroke-linejoin="round" points="424.2016665123763,601.295272624068 419.19247378716744,596.4056930673255 "/><text x="412.03648417972624" y="592.4205794148361" font-size="11" fill="#ef4444" text-anchor="middle">3.2</text><text x="470" y="684" font-size="16" text-anchor="middle" fill="#e5e7eb"><tspan fill="#e5e7eb">620 В</tspan> · 5.2 А</text><path fill="none" stroke="#23272f" stroke-width="14" stroke-linecap="butt" d="M 598.0 646.0 A 52 52 0 0 1 702.0 646.0"/><path fill="none" stroke="#f5b300" stroke-width="14" stroke-linecap="butt" d="M 598.0 646.0 A 52 52 0 0 1 631.6 597.4"/><path fill="none" stroke="#22c55e" stroke-width="14" stroke-linecap="butt" d="M 631.6 597.4 A 52 52 0 0 1 688.9 611.5"/><path fill="none" stroke="#ef4444" stroke-width="14" stroke-linecap="butt" d="M 688.9 611.5 A 52 52 0 0 1 702.0 646.0"/><path d="M 612.5,611.1 L 617.4,611.6 L 618.4,611.9 L 619.3,612.4 L 620.1,613.1 L 620.6,614.0 L 620.8,615.1 L 620.7,616.1 L 620.4,617.1 L 619.8,617.9 L 619.0,618.6 L 618.0,619.0 L 617.0,619.1 L 616.0,618.9 L 615.1,618.5 L 614.3,617.9 L 613.7,617.0 L 613.4,616.0 Z" fill="#ffffff" stroke="#0f1115" stroke-width="1"/><text x="650" y="646" font-size="15.6" fill="#f5b300" text-anchor="middle">3.10 кВт</text><text x="650" y="666" font-size="12" fill="#9ca3af" text-anchor="middle">Поле 2</text><text x="650" y="626" font-size="10" fill="#9ca3af" text-anchor="middle">0.0 кВт·ч</text><polyline fill="none" stroke="#9ca3af" stroke-width="1.5" stroke-linejoin="round" points="591,646 585,646 "/><text x="575" y="649" font-size="10" fill="#9ca3af" text-anchor="middle">0</text><polyline fill="none" stroke="#9ca3af" stroke-width="1.5" stroke-linejoin="round" points="629.0783116644905,590.8340416815605 626.9506823422352,585.223944225448 "/><text x="623.4046334718098" y="578.8737817985939" font-size="10" fill="#9ca3af" text-anchor="middle">5</text><polyline fill="none" stroke="#9ca3af" stroke-width="1.5" stroke-linejoin="round" points="694.1621341420949,606.8757631637931 698.6531986311215,602.8970272143483 "/><text x="706.1383061128327" y="599.2658006319404" font-size="10" fill="#9ca3af" text-anchor="middle">10</text><polyline fill="none" stroke="#9ca3af" stroke-width="1.5" stroke-linejoin="round" points="709,646 715,646 "/><text x="725" y="649" font-size="10" fill="#9ca3af" text-anchor="middle">13</text><path d="M 611.4,610.1 L 606.4,609.5 L 605.4,609.3 L 604.5,608.8 L 603.8,608.0 L 603.3,607.1 L 603.1,606.1 L 603.1,605.1 L 603.5,604.1 L 604.1,603.3 L 604.9,602.6 L 605.8,602.2 L 606.8,602.1 L 607.9,602.2 L 608.8,602.7 L 609.6,603.3 L 610.2,604.2 L 610.5,605.2 Z" fill="#ef4444" stroke="#0f1115" stroke-width="1"/><polyline fill="none" stroke="#ef4444" stroke-width="1.5" stroke-linejoin="round" points="603.1348053377425,602.414985037645 598.0089246715581,597.6478740261374 "/><text x="590.6862380055803" y="593.8377154382694" font-size="11" fill="#ef4444" text-anchor="middle">3.1</text><text x="650" y="684" font-size="16" text-anchor="middle" fill="#e5e7eb"><tspan fill="#e5e7eb">618 В</tspan> · 5.0 А</text><path fill="none" stroke="#23272f" stroke-width="14" stroke-linecap="butt" d="M 778.0 646.0 A 52 52 0 0 1 882.0 646.0"/><path fill="none" stroke="#f5b300" stroke-width="14" stroke-linecap="butt" d="M 778.0 646.0 A 52 52 0 0 1 811.6 597.4"/><path fill="none" stroke="#22c55e" stroke-width="14" stroke-linecap="butt" d="M 811.6 597.4 A 52 52 0 0 1 868.9 611.5"/><path fill="none" stroke="#ef4444" stroke-width="14" stroke-linecap="butt" d="M 868.9 611.5 A 52 52 0 0 1 882.0 646.0"/><path d="M 790.8,613.0 L 795.8,613.2 L 796.8,613.4 L 797.8,613.9 L 798.5,614.6 L 799.0,615.5 L 799.3,616.5 L 799.3,617.5 L 799.0,618.5 L 798.5,619.4 L 797.7,620.1 L 796.8,620.5 L 795.8,620.7 L 794.7,620.6 L 793.8,620.2 L 792.9,619.6 L 792.3,618.8 L 792.0,617.8 Z" fill="#ffffff" stroke="#0f1115" stroke-width="1"/><text x="830" y="646" font-size="15.6" fill="#f5b300" text-anchor="middle">2.90 кВт</text><text x="830" y="666" font-size="12" fill="#9ca3af" text-anchor="middle">Поле 3</text><text x="830" y="626" font-size="10" fill="#9ca3af" text-anchor="middle">0.0 кВт·ч</text><polyline fill="none" stroke="#9ca3af" stroke-width="1.5" stroke-linejoin="round" points="771,646 765,646 "/><text x="755" y="649" font-size="10" fill="#9ca3af" text-anchor="middle">0</text><polyline fill="none" stroke="#9ca3af" stroke-width="1.5" stroke-linejoin="round" points="809.0783116644905,590.8340416815605 806.9506823422352,585.223944225448 "/><text x="803.4046334718098" y="578.8737817985939" font-size="10" fill="#9ca3af" text-anchor="middle">5</text><polyline fill="none" stroke="#9ca3af" stroke-width="1.5" stroke-linejoin="round" points="874.1621341420949,606.8757631637931 878.6531986311215,602.8970272143483 "/><text x="886.1383061128327" y="599.2658006319404" font-size="10" fill="#9ca3af" text-anchor="middle">10</text><polyline fill="none" stroke="#9ca3af" stroke-width="1.5" stroke-linejoin="round" points="889,646 895,646 "/><text x="905" y="649" font-size="10" fill="#9ca3af" text-anchor="middle">13</text><path d="M 789.7,612.0 L 784.7,611.7 L 783.7,611.5 L 782.8,611.0 L 782.0,610.3 L 781.5,609.4 L 781.2,608.4 L 781.2,607.4 L 781.5,606.4 L 782.0,605.5 L 782.8,604.8 L 783.7,604.4 L 784.8,604.2 L 785.8,604.3 L 786.7,604.7 L 787.6,605.3 L 788.2,606.1 L 788.6,607.1 Z" fill="#ef4444" stroke="#0f1115" stroke-width="1"/><polyline fill="none" stroke="#ef4444" stroke-width="1.5" stroke-linejoin="round" points="781.0837938850657,604.7300983848851 775.7335838412448,600.2162028957318 "/><text x="768.0904266357863" y="596.7677807683701" font-size="11" fill="#ef4444" text-anchor="middle">2.9</text><text x="830" y="684" font-size="16" text-anchor="middle" fill="#e5e7eb"><tspan fill="#e5e7eb">615 В</tspan> · 4.7 А</text><text x="380" y="710" font-size="13" fill="#9ca3af" text-anchor="start">Всего</text><rect x="380.0" y="722" width="66.7" height="44" fill="#f5b300" opacity="0.85"/><rect x="446.7" y="722" width="200.0" height="44" fill="#22c55e" opacity="0.85"/><rect x="646.7" y="722" width="66.7" height="44" fill="#f59e0b" opacity="0.85"/><rect x="713.3" y="722" width="106.7" height="44" fill="#ef4444" opacity="0.85"/><rect x="820.0" y="722" width="80.0" height="44" fill="#b91c1c" opacity="0.85"/><rect x="380" y="722" width="520" height="44" rx="6" fill="none" stroke="#2b2f38" stroke-width="1"/><path d="M 502.7,766 C 509.7,775 509.7,784 502.7,784 C 495.7,784 495.7,775 502.7,766 Z" fill="#ffffff" stroke="#0f1115" stroke-width="1"/><text x="640" y="754" font-size="28" fill="#ffffff" text-anchor="middle">9.20 кВт</text><text x="382" y="779" font-size="10" fill="#9ca3af" text-anchor="start">0</text><text x="446.6666666666667" y="779" font-size="9" fill="#9ca3af" text-anchor="middle">5</text><text x="646.6666666666667" y="779" font-size="9" fill="#9ca3af" text-anchor="middle">20</text><text x="713.3333333333333" y="779" font-size="9" fill="#9ca3af" text-anchor="middle">25</text><text x="820" y="779" font-size="9" fill="#9ca3af" text-anchor="middle">33</text><text x="898" y="779" font-size="10" fill="#9ca3af" text-anchor="end">39 кВт</text><rect x="956" y="520" width="464" height="280" rx="12" fill="#171a20" stroke="#2b2f38" stroke-width="1.5"/><circle cx="978" cy="542" r="12" fill="none" stroke="#e5e7eb" stroke-width="2"/><text x="978" y="547" font-size="14" font-weight="bold" fill="#e5e7eb" text-anchor="middle">G</text><text x="1000" y="547" font-size="14" fill="#e5e7eb" text-anchor="start">Генератор</text><rect x="1090" y="534" width="62" height="18" rx="6" fill="#6b7280" fill-opacity="0.12" stroke="#6b7280" stroke-width="1.2"/><text x="1121" y="547" font-size="12" fill="#6b7280" text-anchor="middle">РУЧНОЙ</text><rect x="1168" y="535" width="24" height="16" rx="2" fill="none" stroke="#6b7280" stroke-width="1.6"/><line x1="1180" y1="537" x2="1180" y2="549" stroke="#6b7280" stroke-width="1.3"/><line x1="1172" y1="540" x2="1177" y2="540" stroke="#6b7280" stroke-width="1.3"/><line x1="1172" y1="546" x2="1177" y2="546" stroke="#6b7280" stroke-width="1.3"/><path d="M 1182 543 c 1.2,-3.5 3.3,-3.5 4.5,0 c 1.2,3.5 3.3,3.5 4.5,0" fill="none" stroke="#6b7280" stroke-width="1.3"/><rect x="1208" y="537" width="20" height="12" rx="2" fill="none" stroke="#22c55e" stroke-width="1.5"/><rect x="1228" y="540" width="3" height="6" rx="1" fill="#22c55e"/><text x="1234" y="547" font-size="12" fill="#22c55e" text-anchor="start">0.0В</text><text x="1378" y="547" font-size="14" fill="#6b7280" text-anchor="end">ВЫКЛЮЧЕН</text><circle cx="1404" cy="543" r="6" fill="#6b7280"/><rect x="1200" y="562" width="132" height="26" rx="8" fill="#9ca3af" fill-opacity="0" stroke="#9ca3af" stroke-width="1.4"/><path d="M 1212.0 581 q 2 -3 0 -6 q -2 -3 0 -6" fill="none" stroke="#9ca3af" stroke-width="1.8"/><path d="M 1217.0 581 q 2 -3 0 -6 q -2 -3 0 -6" fill="none" stroke="#9ca3af" stroke-width="1.8"/><path d="M 1222.0 581 q 2 -3 0 -6 q -2 -3 0 -6" fill="none" stroke="#9ca3af" stroke-width="1.8"/><text x="1232" y="580" font-size="12" fill="#e5e7eb" text-anchor="start">20→0°C</text><rect x="1338" y="562" width="72" height="26" rx="8" fill="none" stroke="#6b7280" stroke-width="1.3"/><text x="1374" y="580" font-size="13" fill="#6b7280" text-anchor="middle">СТАРТ</text><text x="1410" y="604" font-size="10" fill="#6b7280" text-anchor="end">ручной — только монитор</text><line x1="1192" y1="558" x2="1192" y2="786" stroke="#2b2f38" stroke-width="1"/><text x="972" y="578" font-size="11" fill="#9ca3af" text-anchor="start">Нагрузка по фазам</text><text x="972" y="608" font-size="13" fill="#e5e7eb" text-anchor="start">L1</text><text x="1052" y="608" font-size="13" fill="#e5e7eb" text-anchor="middle">0 В</text><text x="1180" y="608" font-size="13" fill="#e5e7eb" text-anchor="end">0 А · 0.00 кВт</text><text x="972" y="636" font-size="13" fill="#e5e7eb" text-anchor="start">L2</text><text x="1052" y="636" font-size="13" fill="#e5e7eb" text-anchor="middle">0 В</text><text x="1180" y="636" font-size="13" fill="#e5e7eb" text-anchor="end">0 А · 0.00 кВт</text><text x="972" y="664" font-size="13" fill="#e5e7eb" text-anchor="start">L3</text><text x="1052" y="664" font-size="13" fill="#e5e7eb" text-anchor="middle">0 В</text><text x="1180" y="664" font-size="13" fill="#e5e7eb" text-anchor="end">0 А · 0.00 кВт</text><text x="972" y="790" font-size="10" fill="#9ca3af" text-anchor="start">RS-485 ✓</text><circle cx="1262" cy="674" r="32" fill="none" stroke="#23272f" stroke-width="6"/><circle cx="1262" cy="674" r="32" fill="none" stroke="#22c55e" stroke-width="6"/><text x="1262" y="680" font-size="17" fill="#22c55e" text-anchor="middle">120 ч</text><text x="1262" y="634" font-size="11" fill="#9ca3af" text-anchor="middle">замена масла</text><text x="1262" y="720" font-size="9" fill="#9ca3af" text-anchor="middle">из 0 ч</text><circle cx="1352" cy="674" r="32" fill="none" stroke="#23272f" stroke-width="6"/><circle cx="1352" cy="674" r="32" fill="none" stroke="#22c55e" stroke-width="6"/><text x="1352" y="680" font-size="17" fill="#22c55e" text-anchor="middle">0 ч</text><text x="1352" y="634" font-size="11" fill="#9ca3af" text-anchor="middle">ТО</text><text x="1352" y="720" font-size="9" fill="#9ca3af" text-anchor="middle">из 0 ч</text><text x="1306" y="740" font-size="12" fill="#9ca3af" text-anchor="middle">Наработка: 340.5 ч</text><text x="1306" y="756" font-size="10" fill="#9ca3af" text-anchor="middle">посл. запуск 0ч назад · работал 0 мин</text></svg>